<svg width="893" height="267" viewBox="0 0 893 267" fill="none" xmlns="http://www.w3.org/2000/svg">
<g clip-path="url(#clip0_1_3)">
<line x1="237.914" y1="132.798" x2="312.298" y2="37.5862" stroke="#AAAAAA" stroke-linecap="round" stroke-dasharray="2 2"/>
<line x1="238.392" y1="132.912" x2="357.412" y2="109.108" stroke="#AAAAAA" stroke-linecap="round" stroke-dasharray="2 2"/>
<line x1="238.588" y1="133.108" x2="357.608" y2="156.912" stroke="#AAAAAA" stroke-linecap="round" stroke-dasharray="2 2"/>
<line x1="238.496" y1="132.996" x2="360.496" y2="132.004" stroke="#AAAAAA" stroke-linecap="round" stroke-dasharray="2 2"/>
<line x1="0.5" y1="-0.5" x2="121.324" y2="-0.5" transform="matrix(0.615644 0.788024 0.788024 -0.615644 238 133.5)" stroke="#AAAAAA" stroke-linecap="round" stroke-dasharray="2 2"/>
<circle cx="238" cy="133.5" r="122" stroke="black" stroke-width="2"/>
<circle cx="313" cy="37.5" r="4" fill="black"/>
<circle cx="313" cy="230.5" r="4" fill="black"/>
<circle cx="358" cy="109.5" r="4" fill="black"/>
<circle cx="360" cy="132.5" r="4" fill="#94CD50"/>
<circle cx="358" cy="157.5" r="4" fill="black"/>
<circle cx="238" cy="133.5" r="4" fill="black"/>
<path d="M286.984 123.072L286.218 125.25L288.488 124.824L286.984 123.072ZM288 133H288.2C288.2 130.254 287.97 127.514 287.513 124.807L287.316 124.841L287.119 124.874C287.572 127.558 287.8 130.276 287.8 133H288Z" fill="black"/>
<path d="M274.201 121.099H274.176C274.059 121.099 274 121.053 274 120.961C274 120.927 274.013 120.86 274.038 120.759C274.071 120.642 274.101 120.574 274.126 120.558C274.151 120.541 274.231 120.528 274.365 120.52C275.087 120.495 275.653 120.276 276.065 119.865C276.149 119.781 276.636 119.252 277.525 118.279C278.415 117.305 278.856 116.81 278.847 116.793C277.932 114.46 277.454 113.272 277.412 113.23C277.336 113.138 277.072 113.088 276.619 113.079H276.266C276.216 113.029 276.191 112.995 276.191 112.978C276.191 112.962 276.199 112.882 276.216 112.739C276.249 112.63 276.291 112.55 276.342 112.5H276.518C276.803 112.517 277.311 112.525 278.041 112.525C278.318 112.525 278.574 112.525 278.809 112.525C279.044 112.525 279.233 112.521 279.376 112.513C279.519 112.504 279.603 112.504 279.628 112.513C279.77 112.513 279.842 112.559 279.842 112.651C279.842 112.659 279.833 112.714 279.817 112.815C279.783 112.941 279.754 113.016 279.728 113.041C279.703 113.067 279.636 113.079 279.527 113.079C279.267 113.104 279.04 113.176 278.847 113.293L279.817 115.736L280.484 114.993C281.365 114.044 281.806 113.52 281.806 113.419C281.806 113.268 281.705 113.163 281.504 113.104C281.462 113.104 281.407 113.096 281.34 113.079C281.214 113.079 281.151 113.033 281.151 112.941C281.151 112.924 281.16 112.857 281.176 112.739C281.21 112.63 281.252 112.55 281.302 112.5H281.453C281.462 112.5 281.567 112.5 281.768 112.5C281.97 112.5 282.196 112.508 282.448 112.525C282.7 112.542 282.872 112.546 282.964 112.538C283.72 112.538 284.135 112.525 284.211 112.5H284.311C284.37 112.559 284.399 112.605 284.399 112.638C284.383 112.848 284.332 112.995 284.248 113.079H284.047C283.762 113.088 283.506 113.125 283.279 113.192C283.052 113.26 282.88 113.331 282.763 113.406C282.645 113.482 282.544 113.558 282.461 113.633L282.322 113.746C282.322 113.738 281.923 114.174 281.126 115.056L280.031 116.264C280.031 116.273 280.161 116.609 280.421 117.272C280.681 117.935 280.954 118.615 281.239 119.311C281.525 120.008 281.68 120.369 281.705 120.394C281.789 120.469 282.045 120.511 282.473 120.52C282.767 120.52 282.914 120.558 282.914 120.633C282.914 120.65 282.905 120.709 282.889 120.809C282.855 120.944 282.826 121.023 282.8 121.049C282.775 121.074 282.717 121.086 282.624 121.086C282.599 121.086 282.461 121.086 282.209 121.086C281.957 121.086 281.583 121.082 281.088 121.074C280.576 121.074 280.186 121.074 279.917 121.074C279.649 121.074 279.502 121.078 279.477 121.086C279.334 121.086 279.263 121.049 279.263 120.973C279.263 120.965 279.271 120.902 279.288 120.784C279.305 120.7 279.321 120.642 279.338 120.608C279.355 120.574 279.376 120.553 279.401 120.545C279.426 120.537 279.464 120.528 279.514 120.52C279.565 120.511 279.632 120.507 279.716 120.507C279.8 120.507 279.909 120.478 280.043 120.419C280.186 120.352 280.257 120.31 280.257 120.293C280.249 120.293 280.052 119.802 279.666 118.82L279.074 117.335C277.496 119.047 276.686 119.949 276.644 120.041C276.61 120.109 276.594 120.159 276.594 120.193C276.594 120.352 276.715 120.457 276.959 120.507C276.967 120.507 276.992 120.507 277.034 120.507C277.076 120.507 277.101 120.511 277.11 120.52C277.135 120.52 277.152 120.52 277.16 120.52C277.169 120.52 277.181 120.524 277.198 120.532C277.215 120.541 277.227 120.553 277.236 120.57C277.244 120.587 277.248 120.616 277.248 120.658C277.248 120.734 277.24 120.801 277.223 120.86C277.198 120.969 277.173 121.032 277.148 121.049C277.122 121.065 277.059 121.078 276.959 121.086C276.933 121.086 276.858 121.086 276.732 121.086C276.606 121.086 276.43 121.082 276.203 121.074C275.977 121.065 275.729 121.065 275.46 121.074C274.806 121.074 274.386 121.082 274.201 121.099Z" fill="black"/>
<g clip-path="url(#clip1_1_3)">
<path d="M497.5 133.5L487.5 127.726V139.274L497.5 133.5ZM396.5 133.5V134.5H488.5V133.5V132.5H396.5V133.5Z" fill="black"/>
<path d="M415.745 120.948H415.714C415.571 120.948 415.5 120.892 415.5 120.78C415.5 120.739 415.515 120.657 415.546 120.535C415.587 120.392 415.622 120.311 415.653 120.29C415.684 120.27 415.78 120.255 415.944 120.244C416.821 120.214 417.509 119.949 418.009 119.449C418.111 119.347 418.702 118.704 419.783 117.521C420.864 116.338 421.4 115.737 421.39 115.716C420.278 112.881 419.697 111.438 419.646 111.387C419.554 111.275 419.233 111.214 418.682 111.204H418.254C418.192 111.142 418.162 111.102 418.162 111.081C418.162 111.061 418.172 110.964 418.192 110.791C418.233 110.658 418.284 110.561 418.345 110.5H418.559C418.906 110.52 419.523 110.531 420.41 110.531C420.747 110.531 421.058 110.531 421.344 110.531C421.629 110.531 421.859 110.525 422.032 110.515C422.205 110.505 422.307 110.505 422.338 110.515C422.511 110.515 422.598 110.571 422.598 110.684C422.598 110.694 422.588 110.76 422.567 110.882C422.527 111.035 422.491 111.127 422.46 111.158C422.43 111.188 422.348 111.204 422.216 111.204C421.899 111.234 421.624 111.321 421.39 111.464L422.567 114.431L423.378 113.529C424.449 112.376 424.984 111.739 424.984 111.617C424.984 111.433 424.862 111.306 424.617 111.234C424.566 111.234 424.5 111.224 424.418 111.204C424.265 111.204 424.189 111.148 424.189 111.035C424.189 111.015 424.199 110.933 424.22 110.791C424.26 110.658 424.311 110.561 424.373 110.5H424.556C424.566 110.5 424.694 110.5 424.939 110.5C425.183 110.5 425.459 110.51 425.765 110.531C426.071 110.551 426.28 110.556 426.392 110.546C427.31 110.546 427.814 110.531 427.906 110.5H428.029C428.1 110.571 428.136 110.627 428.136 110.668C428.115 110.923 428.054 111.102 427.952 111.204H427.707C427.361 111.214 427.05 111.26 426.774 111.341C426.499 111.423 426.29 111.51 426.147 111.601C426.004 111.693 425.882 111.785 425.78 111.877L425.612 112.014C425.612 112.004 425.127 112.535 424.158 113.605L422.827 115.074C422.827 115.084 422.986 115.492 423.302 116.298C423.618 117.103 423.949 117.929 424.296 118.776C424.643 119.622 424.831 120.061 424.862 120.091C424.964 120.183 425.275 120.234 425.795 120.244C426.152 120.244 426.331 120.29 426.331 120.382C426.331 120.403 426.32 120.474 426.3 120.596C426.259 120.759 426.223 120.856 426.193 120.887C426.162 120.918 426.091 120.933 425.979 120.933C425.948 120.933 425.78 120.933 425.474 120.933C425.168 120.933 424.714 120.928 424.112 120.918C423.49 120.918 423.016 120.918 422.69 120.918C422.363 120.918 422.185 120.923 422.154 120.933C421.981 120.933 421.894 120.887 421.894 120.795C421.894 120.785 421.905 120.708 421.925 120.566C421.945 120.464 421.966 120.392 421.986 120.352C422.007 120.311 422.032 120.285 422.063 120.275C422.093 120.265 422.139 120.255 422.2 120.244C422.261 120.234 422.343 120.229 422.445 120.229C422.547 120.229 422.68 120.193 422.843 120.122C423.016 120.04 423.103 119.989 423.103 119.969C423.093 119.969 422.853 119.372 422.384 118.179L421.665 116.374C419.748 118.455 418.763 119.551 418.712 119.663C418.672 119.745 418.651 119.806 418.651 119.847C418.651 120.04 418.799 120.168 419.095 120.229C419.105 120.229 419.136 120.229 419.187 120.229C419.238 120.229 419.268 120.234 419.278 120.244C419.309 120.244 419.329 120.244 419.34 120.244C419.35 120.244 419.365 120.25 419.386 120.26C419.406 120.27 419.421 120.285 419.431 120.306C419.442 120.326 419.447 120.362 419.447 120.413C419.447 120.504 419.437 120.586 419.416 120.657C419.386 120.79 419.355 120.867 419.324 120.887C419.294 120.907 419.217 120.923 419.095 120.933C419.064 120.933 418.973 120.933 418.82 120.933C418.667 120.933 418.452 120.928 418.177 120.918C417.902 120.907 417.601 120.907 417.275 120.918C416.479 120.918 415.969 120.928 415.745 120.948Z" fill="black"/>
<path d="M433.471 118.577V119.281C433.471 119.546 433.456 119.729 433.426 119.831C433.395 119.933 433.308 119.984 433.165 119.984C433.023 119.984 432.936 119.928 432.905 119.816C432.875 119.704 432.854 119.418 432.844 118.959C432.844 118.857 432.844 118.603 432.844 118.195C432.844 117.787 432.849 117.43 432.86 117.124C432.86 115.38 432.87 114.488 432.89 114.447C432.931 114.324 433.023 114.263 433.165 114.263C433.298 114.263 433.38 114.309 433.41 114.401C433.441 114.493 433.461 114.671 433.471 114.936V115.671V116.818H444.792C443.609 115.931 442.879 114.793 442.604 113.406C442.604 113.396 442.604 113.381 442.604 113.361C442.604 113.34 442.599 113.325 442.589 113.315C442.589 113.192 442.675 113.131 442.849 113.131H442.895C442.986 113.131 443.048 113.136 443.078 113.146C443.109 113.157 443.139 113.177 443.17 113.208C443.201 113.238 443.216 113.284 443.216 113.345C443.216 113.406 443.231 113.488 443.262 113.59C443.292 113.692 443.333 113.82 443.384 113.972C443.609 114.656 443.981 115.268 444.501 115.808C445.021 116.349 445.628 116.731 446.321 116.955C446.413 116.986 446.459 117.042 446.459 117.124C446.459 117.185 446.433 117.231 446.382 117.261C446.331 117.292 446.209 117.343 446.015 117.414C445.822 117.486 445.628 117.583 445.434 117.705C445.016 117.97 444.654 118.276 444.348 118.623C444.042 118.97 443.812 119.311 443.66 119.648C443.507 119.984 443.399 120.239 443.338 120.413C443.277 120.586 443.236 120.744 443.216 120.887C443.195 120.989 443.17 121.05 443.139 121.071C443.109 121.091 443.027 121.106 442.895 121.116C442.691 121.116 442.589 121.06 442.589 120.948C442.589 120.877 442.614 120.749 442.665 120.566C442.992 119.281 443.7 118.235 444.792 117.43H433.471V118.577Z" fill="black"/>
<path d="M452.85 117.323C452.85 117.323 452.85 117.256 452.85 117.124C452.85 116.991 452.922 116.889 453.064 116.818H461.952C462.105 116.899 462.182 117.001 462.182 117.124C462.182 117.246 462.105 117.348 461.952 117.43H453.064C452.922 117.358 452.85 117.256 452.85 117.124V117.323Z" fill="black"/>
<path d="M464.109 120.948H464.078C463.936 120.948 463.864 120.892 463.864 120.78C463.864 120.739 463.88 120.657 463.91 120.535C463.951 120.392 463.987 120.311 464.017 120.29C464.048 120.27 464.145 120.255 464.308 120.244C465.185 120.214 465.873 119.949 466.373 119.449C466.475 119.347 467.067 118.704 468.148 117.521C469.229 116.338 469.764 115.737 469.754 115.716C468.642 112.881 468.061 111.438 468.01 111.387C467.918 111.275 467.597 111.214 467.046 111.204H466.618C466.557 111.142 466.526 111.102 466.526 111.081C466.526 111.061 466.536 110.964 466.557 110.791C466.597 110.658 466.648 110.561 466.71 110.5H466.924C467.271 110.52 467.888 110.531 468.775 110.531C469.111 110.531 469.422 110.531 469.708 110.531C469.993 110.531 470.223 110.525 470.396 110.515C470.57 110.505 470.672 110.505 470.702 110.515C470.876 110.515 470.962 110.571 470.962 110.684C470.962 110.694 470.952 110.76 470.932 110.882C470.891 111.035 470.855 111.127 470.825 111.158C470.794 111.188 470.712 111.204 470.58 111.204C470.264 111.234 469.988 111.321 469.754 111.464L470.932 114.431L471.742 113.529C472.813 112.376 473.349 111.739 473.349 111.617C473.349 111.433 473.226 111.306 472.982 111.234C472.931 111.234 472.864 111.224 472.783 111.204C472.63 111.204 472.553 111.148 472.553 111.035C472.553 111.015 472.563 110.933 472.584 110.791C472.625 110.658 472.676 110.561 472.737 110.5H472.92C472.931 110.5 473.058 110.5 473.303 110.5C473.548 110.5 473.823 110.51 474.129 110.531C474.435 110.551 474.644 110.556 474.756 110.546C475.674 110.546 476.179 110.531 476.271 110.5H476.393C476.464 110.571 476.5 110.627 476.5 110.668C476.48 110.923 476.418 111.102 476.316 111.204H476.072C475.725 111.214 475.414 111.26 475.139 111.341C474.863 111.423 474.654 111.51 474.511 111.601C474.369 111.693 474.246 111.785 474.144 111.877L473.976 112.014C473.976 112.004 473.491 112.535 472.523 113.605L471.192 115.074C471.192 115.084 471.35 115.492 471.666 116.298C471.982 117.103 472.314 117.929 472.66 118.776C473.007 119.622 473.196 120.061 473.226 120.091C473.328 120.183 473.639 120.234 474.159 120.244C474.516 120.244 474.695 120.29 474.695 120.382C474.695 120.403 474.685 120.474 474.664 120.596C474.624 120.759 474.588 120.856 474.557 120.887C474.527 120.918 474.455 120.933 474.343 120.933C474.312 120.933 474.144 120.933 473.838 120.933C473.532 120.933 473.078 120.928 472.477 120.918C471.855 120.918 471.38 120.918 471.054 120.918C470.728 120.918 470.549 120.923 470.519 120.933C470.345 120.933 470.259 120.887 470.259 120.795C470.259 120.785 470.269 120.708 470.289 120.566C470.31 120.464 470.33 120.392 470.35 120.352C470.371 120.311 470.396 120.285 470.427 120.275C470.458 120.265 470.503 120.255 470.565 120.244C470.626 120.234 470.707 120.229 470.809 120.229C470.911 120.229 471.044 120.193 471.207 120.122C471.38 120.04 471.467 119.989 471.467 119.969C471.457 119.969 471.217 119.372 470.748 118.179L470.029 116.374C468.112 118.455 467.128 119.551 467.077 119.663C467.036 119.745 467.016 119.806 467.016 119.847C467.016 120.04 467.163 120.168 467.459 120.229C467.469 120.229 467.5 120.229 467.551 120.229C467.602 120.229 467.633 120.234 467.643 120.244C467.673 120.244 467.694 120.244 467.704 120.244C467.714 120.244 467.729 120.25 467.75 120.26C467.77 120.27 467.786 120.285 467.796 120.306C467.806 120.326 467.811 120.362 467.811 120.413C467.811 120.504 467.801 120.586 467.78 120.657C467.75 120.79 467.719 120.867 467.689 120.887C467.658 120.907 467.582 120.923 467.459 120.933C467.429 120.933 467.337 120.933 467.184 120.933C467.031 120.933 466.817 120.928 466.541 120.918C466.266 120.907 465.965 120.907 465.639 120.918C464.843 120.918 464.333 120.928 464.109 120.948Z" fill="black"/>
</g>
<path d="M537.5 133H774" stroke="black"/>
<circle cx="725.5" cy="133" r="3.5" fill="black"/>
<circle cx="772.5" cy="133" r="3.5" fill="#94CD50"/>
<circle cx="650.5" cy="133" r="3.5" fill="black"/>
</g>
<defs>
<clipPath id="clip0_1_3">
<rect width="893" height="267" fill="white"/>
</clipPath>
<clipPath id="clip1_1_3">
<rect width="101" height="100" fill="white" transform="translate(396 83.5)"/>
</clipPath>
</defs>
</svg>
