<svg width="868" height="308" viewBox="0 0 868 308" fill="none" xmlns="http://www.w3.org/2000/svg">
<line x1="132.5" y1="106" x2="732.5" y2="106" stroke="black" stroke-width="4"/>
<line x1="531.5" y1="207" x2="531.5" y2="108" stroke="black" stroke-width="4"/>
<circle cx="132.5" cy="107" r="25" fill="#C5C5C5"/>
<circle cx="232.5" cy="107" r="25" fill="#C5C5C5"/>
<circle cx="332.5" cy="107" r="25" fill="#C5C5C5"/>
<circle cx="432.5" cy="107" r="25" fill="#C5C5C5"/>
<circle cx="532.5" cy="107" r="25" fill="#C5C5C5"/>
<circle cx="632.5" cy="107" r="25" fill="#C5C5C5"/>
<circle cx="732.5" cy="107" r="25" fill="#C5C5C5"/>
<circle cx="532.5" cy="207" r="25" fill="#C5C5C5"/>
<rect x="295.5" y="62" width="477" height="183" rx="39" stroke="black" stroke-dasharray="2 2"/>
<rect width="179" height="91" rx="39" transform="matrix(-1 0 0 1 274.5 62)" stroke="black" stroke-dasharray="2 2"/>
<path d="M120.388 186.698C121.293 186.698 122.121 186.299 122.872 185.502C123.623 184.705 124.007 183.777 124.022 182.719C124.022 181.753 123.623 181.086 122.826 180.718C121.201 180.304 120.158 180.02 119.698 179.867C119.238 179.714 118.916 179.56 118.732 179.407C117.812 178.763 117.352 177.835 117.352 176.624C117.352 175.689 117.597 174.838 118.088 174.071C118.579 173.304 119.077 172.729 119.583 172.346C120.028 171.963 120.564 171.656 121.193 171.426C121.822 171.196 122.312 171.073 122.665 171.058H122.918H123.079C124.551 171.058 125.617 171.549 126.276 172.53C126.291 172.53 126.391 172.43 126.575 172.231C126.759 172.032 126.958 171.809 127.173 171.564C127.388 171.319 127.541 171.15 127.633 171.058C127.648 171.058 127.679 171.058 127.725 171.058C127.771 171.058 127.809 171.05 127.84 171.035C128.039 171.035 128.139 171.089 128.139 171.196C128.139 171.303 127.924 172.231 127.495 173.979C127.066 175.727 126.82 176.632 126.759 176.693C126.698 176.754 126.575 176.777 126.391 176.762C126.084 176.762 125.931 176.693 125.931 176.555C125.931 176.463 125.939 176.386 125.954 176.325C125.954 176.279 125.962 176.133 125.977 175.888C125.992 175.643 126.008 175.443 126.023 175.29C126.023 174.769 125.954 174.316 125.816 173.933C125.678 173.55 125.54 173.266 125.402 173.082C125.264 172.898 125.072 172.706 124.827 172.507C124.275 172.185 123.646 172.024 122.941 172.024C122.067 172.024 121.254 172.377 120.503 173.082C119.752 173.787 119.368 174.6 119.353 175.52C119.353 175.98 119.468 176.379 119.698 176.716C119.928 177.053 120.242 177.291 120.641 177.429C120.702 177.46 121.239 177.605 122.251 177.866C123.263 178.127 123.777 178.265 123.792 178.28C124.313 178.449 124.819 178.817 125.31 179.384C125.801 179.951 126.046 180.718 126.046 181.684C126.046 182.083 125.985 182.512 125.862 182.972C125.785 183.309 125.647 183.685 125.448 184.099C125.249 184.513 124.973 184.965 124.62 185.456C124.267 185.947 123.761 186.407 123.102 186.836C122.443 187.265 121.722 187.557 120.94 187.71C120.756 187.741 120.495 187.756 120.158 187.756C118.64 187.756 117.459 187.334 116.616 186.491L116.386 186.238L115.742 186.951C115.389 187.365 115.175 187.603 115.098 187.664C115.021 187.725 114.922 187.756 114.799 187.756C114.6 187.756 114.5 187.695 114.5 187.572C114.5 187.526 114.945 185.724 115.834 182.167C115.865 182.075 116.018 182.029 116.294 182.029H116.593C116.685 182.121 116.731 182.205 116.731 182.282C116.731 182.313 116.723 182.382 116.708 182.489C116.693 182.596 116.662 182.757 116.616 182.972C116.57 183.187 116.555 183.44 116.57 183.731C116.601 184.329 116.739 184.835 116.984 185.249C117.229 185.663 117.559 185.97 117.973 186.169C118.387 186.368 118.786 186.506 119.169 186.583C119.552 186.66 119.959 186.698 120.388 186.698Z" fill="black"/>
<path d="M129.864 172.599C129.343 172.599 129.067 172.568 129.036 172.507C129.021 172.476 129.013 172.415 129.013 172.323C129.013 171.955 129.097 171.702 129.266 171.564C129.297 171.549 129.427 171.541 129.657 171.541C130.286 171.572 131.328 171.587 132.785 171.587C133.306 171.587 133.789 171.587 134.234 171.587C134.679 171.587 135.024 171.579 135.269 171.564C135.514 171.549 135.668 171.549 135.729 171.564C135.974 171.564 136.097 171.641 136.097 171.794C136.097 171.825 136.082 171.932 136.051 172.116C135.974 172.377 135.898 172.53 135.821 172.576H135.775C135.744 172.576 135.706 172.576 135.66 172.576C135.614 172.576 135.56 172.576 135.499 172.576C135.438 172.576 135.369 172.584 135.292 172.599C135.215 172.614 135.146 172.614 135.085 172.599C134.487 172.614 134.104 172.637 133.935 172.668C133.766 172.699 133.628 172.783 133.521 172.921C133.506 172.952 133.291 173.757 132.877 175.336C132.463 176.915 132.049 178.571 131.635 180.304C131.221 182.037 130.991 183.056 130.945 183.363C130.914 183.578 130.899 183.8 130.899 184.03C130.899 184.858 131.137 185.51 131.612 185.985C132.087 186.46 132.747 186.698 133.59 186.698C134.617 186.698 135.645 186.353 136.672 185.663C137.699 184.973 138.451 183.93 138.926 182.535L140.099 177.912C140.82 174.968 141.18 173.435 141.18 173.312C141.18 172.898 140.689 172.66 139.708 172.599C139.34 172.599 139.156 172.515 139.156 172.346C139.156 172.315 139.171 172.223 139.202 172.07C139.263 171.825 139.309 171.679 139.34 171.633C139.371 171.587 139.447 171.556 139.57 171.541C139.616 171.541 139.861 171.549 140.306 171.564C140.751 171.579 141.395 171.595 142.238 171.61C143.02 171.61 143.618 171.602 144.032 171.587C144.446 171.572 144.668 171.564 144.699 171.564C144.929 171.564 145.044 171.641 145.044 171.794C145.044 172.131 144.983 172.361 144.86 172.484C144.814 172.561 144.645 172.599 144.354 172.599C143.265 172.66 142.583 172.967 142.307 173.519C142.276 173.596 141.893 175.075 141.157 177.958C140.528 180.549 140.145 182.075 140.007 182.535C139.501 184.068 138.619 185.318 137.362 186.284C136.105 187.25 134.801 187.741 133.452 187.756C132.041 187.756 130.914 187.327 130.071 186.468C129.228 185.609 128.798 184.59 128.783 183.409V183.041C128.783 182.765 129.205 180.94 130.048 177.567C130.799 174.485 131.175 172.898 131.175 172.806C131.175 172.699 130.738 172.63 129.864 172.599Z" fill="black"/>
<path d="M147.206 181.5C147.206 180.442 147.283 179.438 147.436 178.487C147.589 177.536 147.766 176.716 147.965 176.026C148.164 175.336 148.448 174.661 148.816 174.002C149.184 173.343 149.475 172.829 149.69 172.461C149.905 172.093 150.227 171.694 150.656 171.265C151.085 170.836 151.338 170.575 151.415 170.483C151.492 170.391 151.683 170.23 151.99 170H152.289H152.381C152.596 170 152.703 170.069 152.703 170.207C152.703 170.253 152.573 170.414 152.312 170.69C152.051 170.966 151.737 171.372 151.369 171.909C151.001 172.446 150.625 173.105 150.242 173.887C149.859 174.669 149.537 175.727 149.276 177.061C149.015 178.395 148.885 179.875 148.885 181.5C148.885 183.125 149.015 184.597 149.276 185.916C149.537 187.235 149.851 188.3 150.219 189.113C150.587 189.926 150.963 190.585 151.346 191.091C151.729 191.597 152.051 192.003 152.312 192.31C152.573 192.617 152.703 192.778 152.703 192.793C152.703 192.931 152.588 193 152.358 193H152.289H151.99L151.346 192.448C149.905 191.145 148.854 189.519 148.195 187.572C147.536 185.625 147.206 183.601 147.206 181.5Z" fill="black"/>
<path d="M156.912 176.601C156.498 176.601 156.176 176.471 155.946 176.21C155.716 175.949 155.593 175.612 155.578 175.198C155.578 174.355 155.946 173.603 156.682 172.944C157.418 172.285 158.307 171.955 159.35 171.955C159.887 171.955 160.224 171.963 160.362 171.978C161.497 172.162 162.363 172.568 162.961 173.197C163.559 173.826 163.866 174.508 163.881 175.244C163.881 176.041 163.62 176.816 163.099 177.567C162.578 178.318 161.857 178.863 160.937 179.2L160.868 179.246C160.868 179.261 160.937 179.284 161.075 179.315C161.213 179.346 161.435 179.415 161.742 179.522C162.049 179.629 162.34 179.79 162.616 180.005C163.873 180.818 164.502 181.891 164.502 183.225C164.502 184.436 164.027 185.494 163.076 186.399C162.125 187.304 160.922 187.756 159.465 187.756C158.238 187.756 157.18 187.426 156.291 186.767C155.402 186.108 154.957 185.272 154.957 184.26C154.957 183.831 155.095 183.486 155.371 183.225C155.647 182.964 155.992 182.826 156.406 182.811C156.835 182.811 157.188 182.949 157.464 183.225C157.74 183.501 157.878 183.846 157.878 184.26C157.878 184.429 157.855 184.582 157.809 184.72C157.763 184.858 157.709 184.981 157.648 185.088C157.587 185.195 157.502 185.287 157.395 185.364C157.288 185.441 157.196 185.502 157.119 185.548C157.042 185.594 156.966 185.625 156.889 185.64C156.812 185.655 156.751 185.678 156.705 185.709L156.613 185.732C157.395 186.422 158.346 186.767 159.465 186.767C160.308 186.767 160.945 186.361 161.374 185.548C161.635 185.042 161.765 184.268 161.765 183.225V182.765C161.765 181.308 161.274 180.335 160.293 179.844C160.063 179.752 159.595 179.698 158.89 179.683L157.924 179.66L157.855 179.614C157.824 179.568 157.809 179.445 157.809 179.246C157.809 178.97 157.87 178.832 157.993 178.832C158.422 178.832 158.867 178.794 159.327 178.717C159.848 178.64 160.324 178.318 160.753 177.751C161.182 177.184 161.397 176.325 161.397 175.175V174.991C161.397 174.117 161.129 173.511 160.592 173.174C160.255 172.959 159.894 172.852 159.511 172.852C159.02 172.852 158.568 172.936 158.154 173.105C157.74 173.274 157.449 173.45 157.28 173.634C157.111 173.818 157.027 173.91 157.027 173.91H157.096C157.142 173.925 157.203 173.941 157.28 173.956C157.357 173.971 157.433 174.01 157.51 174.071C157.587 174.132 157.679 174.186 157.786 174.232C157.893 174.278 157.97 174.362 158.016 174.485C158.062 174.608 158.123 174.723 158.2 174.83C158.277 174.937 158.3 175.091 158.269 175.29C158.269 175.627 158.162 175.926 157.947 176.187C157.732 176.448 157.387 176.586 156.912 176.601Z" fill="black"/>
<path d="M166.871 170.023L166.963 170C167.04 170 167.116 170 167.193 170H167.469L168.113 170.552C169.554 171.855 170.605 173.481 171.264 175.428C171.923 177.375 172.253 179.399 172.253 181.5C172.253 182.543 172.176 183.547 172.023 184.513C171.87 185.479 171.693 186.299 171.494 186.974C171.295 187.649 171.011 188.323 170.643 188.998C170.275 189.673 169.984 190.186 169.769 190.539C169.554 190.892 169.24 191.283 168.826 191.712C168.412 192.141 168.167 192.394 168.09 192.471C168.013 192.548 167.837 192.693 167.561 192.908C167.515 192.954 167.484 192.985 167.469 193H167.193C167.07 193 166.986 193 166.94 193C166.894 193 166.856 192.977 166.825 192.931C166.794 192.885 166.771 192.816 166.756 192.724C166.771 192.709 166.856 192.609 167.009 192.425C169.386 189.956 170.574 186.315 170.574 181.5C170.574 176.685 169.386 173.044 167.009 170.575C166.856 170.391 166.771 170.291 166.756 170.276C166.756 170.153 166.794 170.069 166.871 170.023Z" fill="black"/>
<path d="M330.696 216.342C330.372 216.342 330.21 216.236 330.21 216.026C330.21 215.961 330.251 215.767 330.332 215.443C330.413 215.119 330.453 214.836 330.453 214.593C330.453 214.091 330.283 213.784 329.943 213.67C329.603 213.557 328.818 213.5 327.587 213.5H326.324C326.308 213.533 326.025 214.65 325.474 216.852C324.924 219.054 324.649 220.187 324.649 220.252C324.649 220.317 324.738 220.349 324.916 220.349C325.094 220.349 325.742 220.365 326.859 220.397C328.381 220.397 329.384 220.381 329.87 220.349C330.356 220.317 330.842 220.211 331.327 220.033C332.121 219.774 332.776 219.321 333.295 218.673C333.813 218.026 334.387 216.965 335.019 215.492C335.181 215.135 335.286 214.941 335.335 214.909C335.448 214.876 335.569 214.86 335.699 214.86C336.023 214.86 336.185 214.965 336.185 215.176C334.485 219.288 333.594 221.385 333.513 221.466C333.465 221.498 331.149 221.515 326.567 221.515H321.977C320.326 221.515 319.5 221.426 319.5 221.248C319.5 221.215 319.524 221.102 319.573 220.907C319.638 220.648 319.702 220.503 319.767 220.47C319.832 220.438 320.018 220.414 320.326 220.397C320.763 220.397 321.249 220.373 321.783 220.325C322.01 220.276 322.163 220.179 322.244 220.033C322.277 219.952 322.851 217.677 323.969 213.209C325.086 208.74 325.652 206.473 325.669 206.409C325.669 206.295 325.636 206.239 325.572 206.239C325.442 206.19 325.013 206.15 324.284 206.117H323.532C323.434 206.02 323.386 205.955 323.386 205.923C323.386 205.891 323.402 205.753 323.434 205.51C323.499 205.235 323.58 205.065 323.677 205H337.132C337.245 205.065 337.302 205.154 337.302 205.267C337.302 205.348 337.197 206.255 336.986 207.987C336.776 209.72 336.662 210.61 336.646 210.659C336.614 210.772 336.452 210.829 336.16 210.829H335.869C335.756 210.748 335.699 210.643 335.699 210.513L335.772 209.954C335.82 209.566 335.845 209.145 335.845 208.692C335.845 208.206 335.788 207.801 335.675 207.477C335.561 207.153 335.407 206.902 335.213 206.724C335.019 206.546 334.736 206.417 334.363 206.336C333.991 206.255 333.61 206.198 333.222 206.166C332.833 206.133 332.315 206.117 331.667 206.117H330.526C329.101 206.133 328.348 206.158 328.267 206.19C328.203 206.222 328.154 206.295 328.122 206.409C328.105 206.457 327.854 207.453 327.369 209.396C326.883 211.339 326.632 212.326 326.616 212.359C326.988 212.375 327.377 212.383 327.782 212.383H328.413C329.482 212.383 330.218 212.262 330.623 212.019C331.028 211.776 331.392 211.12 331.716 210.052C331.781 209.793 331.829 209.647 331.862 209.614C331.894 209.582 332.032 209.558 332.275 209.542C332.355 209.542 332.42 209.542 332.469 209.542C332.517 209.542 332.558 209.55 332.59 209.566C332.623 209.582 332.639 209.59 332.639 209.59C332.639 209.59 332.655 209.623 332.687 209.687C332.72 209.752 332.744 209.784 332.76 209.784L331.959 212.99C331.425 215.144 331.133 216.236 331.085 216.269C331.036 216.317 330.906 216.342 330.696 216.342Z" fill="black"/>
<path d="M337.391 219.783C337.391 217.917 337.855 216.441 338.782 215.353C339.709 214.266 340.74 213.722 341.873 213.722C342.663 213.722 343.229 213.928 343.573 214.34C343.916 214.752 344.088 215.21 344.088 215.714C344.088 216 344.008 216.229 343.847 216.401C343.687 216.572 343.464 216.658 343.178 216.658C342.915 216.658 342.697 216.578 342.525 216.418C342.354 216.258 342.268 216.034 342.268 215.748C342.268 215.245 342.537 214.941 343.075 214.838C342.823 214.586 342.468 214.443 342.01 214.409C341.198 214.409 340.528 214.752 340.001 215.439C339.463 216.195 339.194 217.351 339.194 218.908L339.212 218.976C339.269 218.908 339.315 218.833 339.349 218.753C339.818 218.066 340.431 217.723 341.186 217.723H341.255C341.781 217.723 342.245 217.832 342.646 218.049C342.92 218.209 343.195 218.438 343.47 218.736C343.744 219.033 343.968 219.36 344.139 219.715C344.38 220.275 344.5 220.888 344.5 221.552V221.861C344.5 222.124 344.471 222.37 344.414 222.599C344.288 223.275 343.922 223.933 343.315 224.574C342.709 225.215 341.942 225.535 341.014 225.535C340.694 225.535 340.385 225.489 340.087 225.398C339.79 225.306 339.469 225.135 339.126 224.883C338.782 224.631 338.49 224.293 338.25 223.87C338.01 223.446 337.804 222.891 337.632 222.204C337.46 221.517 337.38 220.71 337.391 219.783ZM341.083 218.341C340.74 218.341 340.442 218.438 340.19 218.633C339.938 218.827 339.744 219.085 339.606 219.405C339.469 219.726 339.372 220.052 339.315 220.384C339.257 220.716 339.223 221.071 339.212 221.449C339.212 222.399 339.28 223.08 339.418 223.492C339.555 223.904 339.772 224.236 340.07 224.488C340.345 224.694 340.648 224.797 340.98 224.797C341.564 224.797 342.01 224.579 342.319 224.144C342.468 223.938 342.571 223.681 342.628 223.372C342.686 223.063 342.714 222.462 342.714 221.569C342.714 220.653 342.686 220.041 342.628 219.732C342.571 219.423 342.468 219.165 342.319 218.959C342.01 218.547 341.598 218.341 341.083 218.341Z" fill="black"/>
</svg>
